<svg width="12" height="12" viewBox="0 0 12 12" fill="none" xmlns="http://www.w3.org/2000/svg">
<path d="M10.5354 11.7475L5.99317 7.20651L1.45097 11.7475C1.28904 11.9026 1.07284 11.9881 0.848657 11.9857C0.624476 11.9833 0.410135 11.8933 0.251528 11.7348C0.0929208 11.5764 0.0026549 11.3621 5.76335e-05 11.1379C-0.00253964 10.9137 0.0827382 10.6975 0.237632 10.5354L4.77983 5.99317L0.237632 1.45097C0.0892497 1.28762 0.00942784 1.07344 0.0147192 0.852823C0.0200105 0.632209 0.110009 0.422094 0.266052 0.266052C0.422094 0.110009 0.632209 0.0200105 0.852823 0.0147192C1.07344 0.00942784 1.28762 0.0892497 1.45097 0.237632L5.99317 4.77983L10.5354 0.237632C10.6975 0.0827382 10.9137 -0.00253964 11.1379 5.76335e-05C11.3621 0.0026549 11.5764 0.0929208 11.7348 0.251528C11.8933 0.410135 11.9833 0.624476 11.9857 0.848657C11.9881 1.07284 11.9026 1.28904 11.7475 1.45097L7.20651 5.99317L11.7475 10.5354C11.8272 10.615 11.8904 10.7096 11.9335 10.8137C11.9766 10.9178 11.9988 11.0294 11.9988 11.142C11.9988 11.2547 11.9766 11.3663 11.9335 11.4704C11.8904 11.5745 11.8272 11.669 11.7475 11.7487C11.6678 11.8284 11.5733 11.8916 11.4692 11.9347C11.3651 11.9778 11.2535 12 11.1408 12C11.0282 12 10.9166 11.9778 10.8125 11.9347C10.7084 11.8916 10.6138 11.8284 10.5342 11.7487L10.5354 11.7475Z" fill="black" fill-opacity="0.25"/>
</svg>
