<svg width="22" height="23" viewBox="0 0 22 23" fill="none" xmlns="http://www.w3.org/2000/svg">
<path fill-rule="evenodd" clip-rule="evenodd" d="M11 2.97058C6.02944 2.97058 2 7.00002 2 11.9706C2 16.9411 6.02944 20.9706 11 20.9706C15.9706 20.9706 20 16.9411 20 11.9706C20 7.00002 15.9706 2.97058 11 2.97058ZM0 11.9706C0 5.89545 4.92487 0.970581 11 0.970581C17.0751 0.970581 22 5.89545 22 11.9706C22 18.0457 17.0751 22.9706 11 22.9706C4.92487 22.9706 0 18.0457 0 11.9706Z" fill="white"/>
<path fill-rule="evenodd" clip-rule="evenodd" d="M14.7071 8.26347C15.0976 8.654 15.0976 9.28716 14.7071 9.67769L8.70711 15.6777C8.31658 16.0682 7.68342 16.0682 7.29289 15.6777C6.90237 15.2872 6.90237 14.654 7.29289 14.2635L13.2929 8.26347C13.6834 7.87295 14.3166 7.87295 14.7071 8.26347Z" fill="white"/>
<path fill-rule="evenodd" clip-rule="evenodd" d="M7.29289 8.26347C7.68342 7.87295 8.31658 7.87295 8.70711 8.26347L14.7071 14.2635C15.0976 14.654 15.0976 15.2872 14.7071 15.6777C14.3166 16.0682 13.6834 16.0682 13.2929 15.6777L7.29289 9.67769C6.90237 9.28716 6.90237 8.654 7.29289 8.26347Z" fill="white"/>
</svg>
