<svg width="20" height="20" viewBox="0 0 20 20" fill="none" xmlns="http://www.w3.org/2000/svg">
<g clip-path="url(#clip0)">
<path d="M19.2456 8.26129L11.0878 8.26089C10.7275 8.26089 10.4355 8.55285 10.4355 8.91308V11.5191C10.4355 11.8793 10.7275 12.1713 11.0877 12.1713H15.6817C15.1787 13.4768 14.2398 14.5702 13.0419 15.2648L15.0007 18.6558C18.143 16.8385 20.0007 13.6499 20.0007 10.0804C20.0007 9.57218 19.9633 9.20886 19.8884 8.79976C19.8314 8.48894 19.5616 8.26129 19.2456 8.26129Z" fill="#167EE6"/>
<path d="M9.99957 16.087C7.75137 16.087 5.78871 14.8586 4.73461 13.0409L1.34375 14.9954C3.06934 17.9861 6.30191 20 9.99957 20C11.8135 20 13.5251 19.5116 14.9996 18.6605V18.6558L13.0407 15.2648C12.1447 15.7845 11.1078 16.087 9.99957 16.087Z" fill="#12B347"/>
<path d="M15 18.6605V18.6558L13.0411 15.2648C12.1451 15.7845 11.1083 16.087 10 16.087V20C11.8139 20 13.5256 19.5116 15 18.6605Z" fill="#0F993E"/>
<path d="M3.91305 10C3.91305 8.89187 4.21547 7.85511 4.73504 6.95914L1.34418 5.00468C0.488359 6.47449 0 8.18144 0 10C0 11.8186 0.488359 13.5256 1.34418 14.9954L4.73504 13.0409C4.21547 12.145 3.91305 11.1082 3.91305 10Z" fill="#FFD500"/>
<path d="M9.99957 3.91305C11.4656 3.91305 12.8123 4.43398 13.8641 5.30051C14.1236 5.51426 14.5007 5.49883 14.7384 5.26113L16.5849 3.41465C16.8546 3.14496 16.8354 2.70352 16.5473 2.45359C14.785 0.924727 12.492 0 9.99957 0C6.30191 0 3.06934 2.01395 1.34375 5.00465L4.73461 6.9591C5.78871 5.14141 7.75137 3.91305 9.99957 3.91305Z" fill="#FF4B26"/>
<path d="M13.8645 5.30051C14.124 5.51426 14.5012 5.49883 14.7389 5.26113L16.5854 3.41465C16.855 3.14496 16.8358 2.70352 16.5477 2.45359C14.7854 0.924688 12.4925 0 10 0V3.91305C11.466 3.91305 12.8127 4.43398 13.8645 5.30051Z" fill="#D93F21"/>
</g>
<defs>
<clipPath id="clip0">
<rect width="20" height="20" fill="white"/>
</clipPath>
</defs>
</svg>
