<svg width="80" height="80" viewBox="0 0 80 80" fill="none" xmlns="http://www.w3.org/2000/svg">
<circle cx="40" cy="40" r="40" fill="#2ED8C3"/>
<g clip-path="url(#clip0)">
<path d="M61.1018 37.3728H57.2883C56.5862 37.3728 56.0171 37.942 56.0171 38.644C56.0171 39.346 56.5862 39.9152 57.2883 39.9152H61.1018C61.8039 39.9152 62.373 39.346 62.373 38.644C62.373 37.942 61.8039 37.3728 61.1018 37.3728Z" fill="white"/>
<path d="M59.4581 45.3723L56.9157 42.8299C56.4194 42.3336 55.6144 42.3336 55.118 42.8299C54.6215 43.3263 54.6215 44.1312 55.118 44.6276L57.6604 47.17C58.1567 47.6664 58.9617 47.6664 59.4581 47.17C59.9545 46.6735 59.9545 45.8687 59.4581 45.3723Z" fill="white"/>
<path d="M59.4575 30.1181C58.9612 29.6218 58.1563 29.6218 57.6598 30.1181L55.1174 32.6605C54.621 33.1569 54.621 33.9618 55.1174 34.4582C55.6139 34.9546 56.4188 34.9546 56.9152 34.4582L59.4575 31.9158C59.954 31.4194 59.954 30.6146 59.4575 30.1181Z" fill="white"/>
<path d="M48.3897 22.1185C46.4803 22.1185 44.8944 23.5291 44.6188 25.3629L43.4592 26.5225C41.441 28.5407 38.4688 29.7456 35.5083 29.7456H27.8812C26.224 29.7456 24.811 30.8084 24.2863 32.288H24.0677C21.2639 32.288 18.9829 34.569 18.9829 37.3728C18.9829 40.1765 21.2639 42.4575 24.0677 42.4575H24.2863C24.6699 43.5392 25.5283 44.3976 26.61 44.7812V51.3558C26.61 53.4586 28.3209 55.1694 30.4237 55.1694C32.5264 55.1694 34.2371 53.4586 34.2371 51.3558V44.9999H35.5083C38.4687 44.9999 41.4409 46.2048 43.4592 48.223L44.6188 49.3826C44.8944 51.2163 46.4804 52.627 48.3898 52.627C50.4925 52.627 52.2033 50.9162 52.2033 48.8134V25.9321C52.2033 23.8293 50.4925 22.1185 48.3897 22.1185ZM24.0677 39.9151C22.6658 39.9151 21.5253 38.7746 21.5253 37.3728C21.5253 35.9709 22.6658 34.8304 24.0677 34.8304V39.9151ZM31.6948 51.3558C31.6948 52.0568 31.1245 52.627 30.4236 52.627C29.7227 52.627 29.1524 52.0568 29.1524 51.3558V44.9999H31.6948V51.3558ZM34.2371 42.4575H27.8812C27.1803 42.4575 26.61 41.8873 26.61 41.1863V33.5592C26.61 32.8583 27.1803 32.288 27.8812 32.288H34.2371V42.4575ZM44.5761 45.7919C42.4286 43.9333 39.6675 42.7784 36.771 42.5151L36.7711 32.2303C39.6675 31.9671 42.4286 30.8123 44.5761 28.9535V45.7919ZM49.6609 48.8134C49.6609 49.5144 49.0906 50.0846 48.3898 50.0846H48.3897C47.6888 50.0846 47.1185 49.5144 47.1185 48.8134V25.9321C47.1185 25.2312 47.6888 24.6609 48.3898 24.6609C49.0906 24.6609 49.6609 25.2312 49.6609 25.9321V48.8134Z" fill="white"/>
</g>
<defs>
<clipPath id="clip0">
<rect width="43.3898" height="43.3898" fill="white" transform="translate(18.9829 16.9491)"/>
</clipPath>
</defs>
</svg>
