<svg width="80" height="80" viewBox="0 0 80 80" fill="none" xmlns="http://www.w3.org/2000/svg">
<circle cx="40" cy="40" r="40" fill="#D83C99"/>
<g clip-path="url(#clip0)">
<path d="M40.0006 16.9491C28.0541 16.9491 18.3057 26.699 18.3057 38.644C18.3057 50.5905 28.0556 60.3389 40.0006 60.3389C51.9471 60.3389 61.6955 50.589 61.6955 38.644C61.6955 26.7031 51.9507 16.9491 40.0006 16.9491ZM41.2718 19.5347C47.3497 19.9349 52.6627 23.1821 55.8843 27.9531L41.2718 36.4361V19.5347ZM40.0006 57.7966C29.4398 57.7966 20.848 49.2048 20.848 38.644C20.848 28.5105 28.7591 20.1913 38.7294 19.5347V38.644C38.7294 39.0215 38.8984 39.3818 39.1895 39.6227L53.8963 51.8108C50.4036 55.495 45.466 57.7966 40.0006 57.7966ZM42.2151 38.8283L57.1633 30.1504C58.4359 32.7116 59.1531 35.5954 59.1531 38.644C59.1531 42.8271 57.8041 46.7005 55.5197 49.8542L42.2151 38.8283Z" fill="white"/>
</g>
<defs>
<clipPath id="clip0">
<rect width="43.3898" height="43.3898" fill="white" transform="translate(18.3057 16.9491)"/>
</clipPath>
</defs>
</svg>
