<svg width="80" height="80" viewBox="0 0 80 80" fill="none" xmlns="http://www.w3.org/2000/svg">
<circle cx="40" cy="40" r="40" fill="#1C67CE"/>
<g clip-path="url(#clip0)">
<path d="M60.4243 37.6394C59.8274 37.6394 45.7088 37.6394 45.0819 37.6394C45.8817 36.5764 46.3565 35.2556 46.3565 33.8259C46.3565 33.1238 45.7874 32.5547 45.0853 32.5547H33.9447C32.4909 32.5547 31.1839 33.3625 30.5339 34.6627L29.3968 36.9368C29.1801 37.3702 28.7445 37.6394 28.2598 37.6394C25.5998 37.6394 22.2416 37.6394 19.5769 37.6394C18.8748 37.6394 18.3057 38.2086 18.3057 38.9106V54.1649C18.3057 54.8669 18.8748 55.436 19.5769 55.436C19.8986 55.436 31.4632 55.436 31.8469 55.436L35.4483 59.0375C36.4693 60.0584 37.95 60.4127 39.3193 59.9691L51.4206 56.5643C52.14 56.3619 52.7615 55.9672 53.235 55.436C54.0829 55.436 59.6033 55.436 60.4243 55.436C61.1263 55.436 61.6955 54.8669 61.6955 54.1649V38.9106C61.6955 38.2085 61.1263 37.6394 60.4243 37.6394ZM23.3904 52.8937H20.848V40.1818H23.3904V52.8937ZM51.6176 53.2145C51.5623 53.4265 51.3652 53.9388 50.732 54.1168C50.6852 54.1299 38.593 57.5315 38.5469 57.5467C38.0872 57.7002 37.5886 57.5823 37.246 57.2397L33.2723 53.266C33.0339 53.0276 32.7106 52.8936 32.3735 52.8936C31.1239 52.8936 27.4576 52.8936 25.9328 52.8936V40.1817H28.2598C29.7137 40.1817 31.0207 39.3739 31.6707 38.0737L32.8079 35.7996C33.0246 35.3662 33.4602 35.0885 33.9447 35.0885H43.5963C43.0718 36.5682 41.658 37.6394 40.0007 37.6394H40.0006H39.0295C37.5757 37.6394 36.2686 38.4471 35.6186 39.7474L31.7481 47.4883C31.5922 47.8001 31.5712 48.1623 31.6899 48.49C31.8087 48.8177 32.0569 49.0823 32.3764 49.2218C35.4753 50.5746 39.088 49.2637 40.6013 46.2371L41.0867 45.2665H44.0324C44.3719 45.2665 44.6911 45.3987 44.9312 45.6388L51.2866 51.9943C51.7516 52.4594 51.673 53.0025 51.6176 53.2145ZM53.9836 51.6115C53.797 51.0905 53.495 50.6072 53.0843 50.1966L46.7289 43.841C46.0086 43.1207 45.0509 42.7241 44.0324 42.7241H40.3011C39.8196 42.7241 39.3794 42.9961 39.1641 43.4268L38.3274 45.1002C37.6324 46.4905 36.2018 47.2783 34.7317 47.2063L37.8927 40.8844C38.1094 40.451 38.545 40.1817 39.0296 40.1817C39.6513 40.1817 53.3346 40.1817 53.9837 40.1817C53.9836 40.7675 53.9836 51.0456 53.9836 51.6115ZM59.1531 52.8937C58.1324 52.8937 58.0533 52.8937 56.526 52.8937C56.526 52.335 56.526 40.7393 56.526 40.1818H59.1531V52.8937Z" fill="white"/>
<path d="M40.0007 19.8429C39.2986 19.8429 38.7295 20.412 38.7295 21.1141V24.9276C38.7295 25.6297 39.2986 26.1988 40.0007 26.1988C40.7027 26.1988 41.2719 25.6297 41.2719 24.9276V21.1141C41.2719 20.412 40.7027 19.8429 40.0007 19.8429Z" fill="white"/>
<path d="M33.272 27.8423L30.7296 25.2999C30.2332 24.8035 29.4283 24.8035 28.9319 25.2999C28.4355 25.7964 28.4355 26.6012 28.9319 27.0977L31.4743 29.64C31.9706 30.1365 32.7756 30.1365 33.272 29.64C33.7684 29.1436 33.7684 28.3388 33.272 27.8423Z" fill="white"/>
<path d="M51.0689 25.2999C50.5724 24.8035 49.7675 24.8035 49.2712 25.2999L46.7288 27.8423C46.2323 28.3388 46.2323 29.1436 46.7288 29.64C47.2251 30.1365 48.0301 30.1365 48.5265 29.64L51.0689 27.0977C51.5653 26.6012 51.5653 25.7964 51.0689 25.2999Z" fill="white"/>
</g>
<defs>
<clipPath id="clip0">
<rect width="43.3898" height="43.3898" fill="white" transform="translate(18.3057 18.3051)"/>
</clipPath>
</defs>
</svg>
