<svg width="44" height="44" viewBox="0 0 44 44" fill="none" xmlns="http://www.w3.org/2000/svg">
<path d="M21.9996 0C12.6504 0 5.04443 7.60696 5.04443 16.9572C5.04443 23.6384 7.84159 30.3966 13.1335 36.5015C17.0861 41.0612 21.0031 43.6445 21.1681 43.7523C21.4206 43.9175 21.7102 44 21.9998 44C22.2892 44 22.5789 43.9175 22.8316 43.7523C22.9963 43.6445 26.914 41.0612 30.8666 36.5017C36.1589 30.3966 38.9563 23.6384 38.9563 16.9572C38.9561 7.60696 31.3493 0 21.9996 0ZM21.9996 40.6137C18.8813 38.29 8.08438 29.3468 8.08438 16.9572C8.08438 9.28319 14.3266 3.03995 21.9996 3.03995C29.6733 3.03995 35.9161 9.28319 35.9161 16.9572C35.9161 29.3468 25.1182 38.29 21.9996 40.6137Z" fill="#1C67CE"/>
<path d="M22.0006 10.2241C18.2899 10.2241 15.271 13.2432 15.271 16.9544C15.271 20.6645 18.2899 23.683 22.0006 23.683C25.7114 23.683 28.7301 20.6645 28.7301 16.9544C28.7301 13.2434 25.7112 10.2241 22.0006 10.2241ZM22.0006 20.643C19.9661 20.643 18.3109 18.9883 18.3109 16.9544C18.3109 14.9194 19.9661 13.2641 22.0006 13.2641C24.035 13.2641 25.6901 14.9194 25.6901 16.9544C25.6901 18.9883 24.035 20.643 22.0006 20.643Z" fill="#1C67CE"/>
</svg>
