<svg width="43" height="42" viewBox="0 0 43 42" fill="none" xmlns="http://www.w3.org/2000/svg">
<g clip-path="url(#clip0)">
<path d="M36.7674 5.50193C33.1348 1.95372 28.3046 -0.000198453 23.1675 1.5118e-08C22.3257 1.5118e-08 21.6436 0.666456 21.6436 1.48851C21.6436 2.31056 22.3259 2.97702 23.1675 2.97702C27.4906 2.97682 31.5551 4.62113 34.6122 7.60708C37.6694 10.593 39.3529 14.5632 39.3527 18.786C39.3527 19.608 40.0348 20.2745 40.8766 20.2745C41.7183 20.2745 42.4006 19.608 42.4006 18.7862C42.4008 13.7679 40.4003 9.05014 36.7674 5.50193Z" fill="#1C67CE"/>
<path d="M30.4985 18.7862C30.4985 19.6083 31.1808 20.2747 32.0227 20.2745C32.8643 20.2745 33.5464 19.6081 33.5464 18.786C33.546 13.1972 28.89 8.64966 23.1677 8.64886C23.1675 8.64886 23.1677 8.64886 23.1675 8.64886C22.3259 8.64886 21.6438 9.31512 21.6436 10.1372C21.6436 10.9592 22.3257 11.6257 23.1673 11.6259C27.2094 11.6265 30.4981 14.8385 30.4985 18.7862Z" fill="#1C67CE"/>
<path d="M27.1262 26.3756C24.8033 26.2581 23.6199 27.9455 23.0524 28.756C22.5771 29.4346 22.7551 30.3608 23.4499 30.8251C24.1446 31.2893 25.0929 31.1154 25.5681 30.4368C26.2387 29.4792 26.5425 29.3286 26.9545 29.3477C28.2735 29.4991 33.4681 33.2172 33.9883 34.3798C34.1187 34.7222 34.1138 35.0578 33.9738 35.466C33.4285 37.047 32.5257 38.158 31.3626 38.6788C30.2576 39.1736 28.903 39.1288 27.4459 38.5496C22.0049 36.3835 17.2514 33.3607 13.3176 29.5648C13.316 29.5632 13.3144 29.5618 13.3129 29.5602C9.43478 25.7216 6.34563 21.0846 4.13164 15.7784C3.53852 14.354 3.4926 13.0306 3.99916 11.9515C4.53234 10.8155 5.66981 9.93372 7.28703 9.40163C7.70642 9.26429 8.04941 9.25993 8.39667 9.38615C9.59124 9.89601 13.3977 14.9696 13.5513 16.2434C13.5732 16.661 13.4178 16.9575 12.4382 17.6113C11.7433 18.0749 11.5647 19.0011 12.0395 19.6799C12.5142 20.3586 13.4623 20.5329 14.1574 20.0693C14.9877 19.5156 16.7148 18.3629 16.5949 16.0862C16.4628 13.7082 11.7268 7.4106 9.46384 6.59787C8.45742 6.2315 7.39879 6.22515 6.31617 6.58001C3.88029 7.38123 2.12104 8.8098 1.22861 10.7111C0.36301 12.5557 0.390441 14.6958 1.30888 16.9011C3.67831 22.5797 6.99342 27.5483 11.1619 31.6695C11.1721 31.6797 11.1825 31.6896 11.193 31.6993C15.4093 35.7633 20.4903 38.9954 26.2964 41.3069C27.4591 41.7688 28.6041 42 29.6991 42C30.7301 42 31.7172 41.7952 32.6328 41.3851C34.5796 40.5137 36.042 38.7955 36.8629 36.4147C37.2253 35.3593 37.2195 34.3256 36.8472 33.3472C36.0123 31.1309 29.5648 26.505 27.1262 26.3756Z" fill="#1C67CE"/>
</g>
<defs>
<clipPath id="clip0">
<rect width="43" height="42" fill="white"/>
</clipPath>
</defs>
</svg>
