<svg width="48" height="35" viewBox="0 0 48 35" fill="none" xmlns="http://www.w3.org/2000/svg">
<path d="M39.5455 7.3105L24.0016 21.2931L8.45432 7.3103C7.83526 6.75355 6.89163 6.81473 6.34644 7.44628C5.80145 8.07804 5.86078 9.04133 6.47985 9.59808L23.0145 24.469C23.2967 24.7226 23.6493 24.8495 24.0018 24.8495C24.3542 24.8495 24.7071 24.7226 24.9892 24.4688L41.5205 9.59787C42.1392 9.04133 42.1987 8.07784 41.6535 7.44608C41.108 6.81493 40.1645 6.75395 39.5455 7.3105Z" fill="#1C67CE"/>
<path d="M43.5198 0.831711H4.48019C2.00991 0.831711 0 2.8833 0 5.40524V29.5945C0 32.1165 2.00991 34.1681 4.48019 34.1681H43.5198C45.9901 34.1681 48 32.1165 48 29.5945V5.40524C48 2.8835 45.9901 0.831711 43.5198 0.831711ZM45.0132 29.5945C45.0132 30.4351 44.3434 31.1191 43.5198 31.1191H4.48019C3.65663 31.1191 2.9868 30.4351 2.9868 29.5945V5.40524C2.9868 4.56473 3.65663 3.88073 4.48019 3.88073H43.5198C44.3434 3.88073 45.0132 4.56473 45.0132 5.40524V29.5945Z" fill="#1C67CE"/>
</svg>
