<svg width="145" height="29" viewBox="0 0 145 29" fill="none" xmlns="http://www.w3.org/2000/svg">
<path d="M101.798 27.1015C101.798 25.8628 102.731 25.0484 103.868 25.0484C104.954 25.0484 105.684 25.7609 105.684 26.8126C105.684 28.0514 104.733 28.8661 103.63 28.8661C102.561 28.8661 101.798 28.1196 101.798 27.1015Z" fill="#1C67CE"/>
<path d="M69.0895 10.7214C71.6006 10.7214 73.0091 8.99075 73.0091 6.71709C73.0091 5.13911 72.0081 4.20569 70.0737 4.20569H68.1053L66.8159 10.7214H69.0895ZM65.2886 1.52484H70.4469C74.1459 1.52484 76.4028 3.44244 76.4028 6.51332C76.4028 10.7214 73.3483 13.4026 68.9876 13.4026H62.9131L65.2886 1.52484Z" fill="#1C67CE"/>
<path d="M84.26 8.39695C84.26 7.32805 83.6322 6.632 82.5294 6.632C81.2395 6.632 80.3404 7.66731 80.3404 9.21132C80.3404 10.2806 80.9682 10.9591 82.0711 10.9591C83.3605 10.9591 84.26 9.92381 84.26 8.39695ZM77.0654 9.36397C77.0654 6.3267 79.4242 4.05304 82.716 4.05304C85.6514 4.05304 87.535 5.69894 87.535 8.22714C87.535 11.2812 85.1763 13.5552 81.8845 13.5552C78.9491 13.5552 77.0654 11.8922 77.0654 9.36397Z" fill="#1C67CE"/>
<path d="M99.568 4.20587L97.7355 13.4028H94.6814L94.8681 12.4522C94.0537 13.2158 93.0184 13.5551 92.0174 13.5551C90.0662 13.5551 88.7256 12.4861 88.7256 10.4159C88.7256 10.0598 88.7595 9.68661 88.8443 9.27907L89.8624 4.20587H93.0863L92.1361 8.97377C92.0853 9.2115 92.0682 9.41491 92.0682 9.60188C92.0682 10.3819 92.4757 10.8063 93.3069 10.8063C94.3929 10.8063 95.1565 10.1446 95.4279 8.75319L96.3441 4.20587H99.568Z" fill="#1C67CE"/>
<path d="M107.794 8.39701C107.794 7.32811 107.149 6.63206 106.046 6.63206C104.773 6.63206 103.857 7.66737 103.857 9.21139C103.857 10.2807 104.502 10.9592 105.605 10.9592C106.877 10.9592 107.794 9.92387 107.794 8.39701ZM111.051 8.2272C111.051 11.2984 108.812 13.5553 106.063 13.5553C104.739 13.5553 103.687 13.1138 103.127 12.096L102.873 13.4026H99.8018L102.313 0.812058H105.537L104.722 4.90179C105.384 4.3584 106.198 4.0531 107.166 4.0531C109.151 4.0531 111.051 5.56316 111.051 8.2272Z" fill="#1C67CE"/>
<path d="M114.105 0.81212H117.329L114.818 13.4027H111.594L114.105 0.81212Z" fill="#1C67CE"/>
<path d="M120.549 7.90474H124.333C124.35 6.92092 123.654 6.34392 122.619 6.34392C121.533 6.34392 120.854 6.98849 120.549 7.90474ZM127.115 9.60177H120.362C120.481 10.6199 121.177 11.0947 122.449 11.0947C123.264 11.0947 124.061 10.8401 124.672 10.3482L126.012 12.3673C124.859 13.2157 123.484 13.5553 122.093 13.5553C119.14 13.5553 117.206 11.9262 117.206 9.36404C117.206 6.30996 119.463 4.0531 122.772 4.0531C125.571 4.0531 127.302 5.68185 127.302 8.09136C127.302 8.63439 127.217 9.14346 127.115 9.60177Z" fill="#1C67CE"/>
<path d="M61.8945 23.7249C61.8945 19.6019 64.9318 16.5982 69.3433 16.5982C71.5322 16.5982 73.3136 17.3958 74.1623 18.8379L71.7356 20.7724C71.1758 19.8733 70.3107 19.3813 69.1227 19.3813C66.8151 19.3813 65.2882 21.1627 65.2882 23.5043C65.2882 25.0995 66.3739 26.1684 68.1896 26.1684C69.2586 26.1684 70.2427 25.7608 71.0911 24.7938L73.0762 26.745C71.7356 28.3569 69.9882 28.9507 67.8672 28.9507C64.219 28.9507 61.8945 26.8301 61.8945 23.7249Z" fill="#1C67CE"/>
<path d="M80.967 23.7078C80.967 22.6389 80.3221 21.9432 79.2192 21.9432C77.9466 21.9432 77.0307 22.9782 77.0307 24.5222C77.0307 25.5914 77.6752 26.27 78.7781 26.27C80.0676 26.27 80.967 25.2347 80.967 23.7078ZM85.0224 19.5169L83.1899 28.7134H80.1355L80.3221 27.8479C79.6096 28.51 78.7273 28.8661 77.6584 28.8661C75.6729 28.8661 73.7725 27.356 73.7725 24.6752C73.7725 21.6208 76.0125 19.3643 78.7613 19.3643C79.9997 19.3643 81.001 19.7375 81.5776 20.6194L81.7986 19.5169H85.0224Z" fill="#1C67CE"/>
<path d="M93.2687 19.3641L92.7089 22.2655C92.4204 22.2315 92.2334 22.2147 91.9792 22.2147C90.5707 22.2147 89.6716 22.8425 89.3659 24.3697L88.4836 28.7133H85.2598L87.0923 19.5171H90.1467L89.9429 20.5345C90.7577 19.7033 91.8945 19.3641 93.2687 19.3641Z" fill="#1C67CE"/>
<path d="M92.3662 27.9666L93.537 25.7101C94.3853 26.2532 95.6409 26.5588 96.7269 26.5588C97.779 26.5588 98.203 26.3043 98.203 25.8967C98.203 24.845 93.4351 25.812 93.4351 22.7068C93.4351 20.5007 95.5561 19.3643 98.3389 19.3643C99.6455 19.3643 100.935 19.6352 101.834 20.0939L100.697 22.3504C99.7982 21.8074 98.78 21.6547 97.9656 21.6547C96.9135 21.6547 96.4892 21.9772 96.4892 22.3504C96.4892 23.4533 101.24 22.4691 101.24 25.5403C101.24 27.7464 99.0853 28.8661 96.3537 28.8661C94.7246 28.8661 93.1634 28.4761 92.3662 27.9666Z" fill="#1C67CE"/>
<path d="M107.074 24.6752C107.074 21.6379 109.45 19.3643 112.776 19.3643C114.863 19.3643 116.441 20.2802 117.136 21.8585L114.387 23.1648C114.031 22.2993 113.403 21.9432 112.606 21.9432C111.299 21.9432 110.349 22.9782 110.349 24.4886C110.349 25.5575 110.977 26.27 112.148 26.27C112.979 26.27 113.641 25.9307 114.133 25.0652L116.492 26.4905C115.609 27.9838 113.946 28.8661 111.927 28.8661C108.991 28.8661 107.074 27.203 107.074 24.6752Z" fill="#1C67CE"/>
<path d="M124.385 23.7078C124.385 22.6389 123.757 21.9432 122.654 21.9432C121.365 21.9432 120.465 22.9782 120.465 24.5222C120.465 25.5914 121.093 26.27 122.196 26.27C123.485 26.27 124.385 25.2347 124.385 23.7078ZM117.19 24.6752C117.19 21.6379 119.549 19.3643 122.841 19.3643C125.776 19.3643 127.659 21.0098 127.659 23.538C127.659 26.5921 125.301 28.8661 122.009 28.8661C119.074 28.8661 117.19 27.203 117.19 24.6752Z" fill="#1C67CE"/>
<path d="M144.999 22.4862C144.999 22.8427 144.965 23.2159 144.88 23.6231L143.879 28.7134H140.655L141.605 23.9623C141.656 23.725 141.673 23.5212 141.673 23.3178C141.673 22.5034 141.249 22.0959 140.519 22.0959C139.552 22.0959 138.856 22.6729 138.568 24.081L137.635 28.7134H134.411L135.378 23.9623C135.429 23.7418 135.446 23.5212 135.446 23.3346C135.446 22.5202 135.022 22.0959 134.292 22.0959C133.308 22.0959 132.612 22.6897 132.324 24.1153L131.407 28.7134H128.184L130.016 19.5169H133.071L132.884 20.45C133.664 19.7035 134.631 19.3643 135.633 19.3643C136.82 19.3643 137.872 19.8562 138.398 20.8571C139.247 19.8898 140.401 19.3643 141.775 19.3643C143.658 19.3643 144.999 20.4332 144.999 22.4862Z" fill="#1C67CE"/>
<path d="M5.8541 1.49599L0.566406 27.9531H6.67241L7.85357 21.9793L10.7246 7.46972L11.9058 1.49599H5.8541Z" fill="#1C67CE"/>
<path d="M16.4567 1.49599H13.6086L12.4274 7.46972H15.6256C19.9323 7.46972 22.1624 9.54568 22.1624 13.062C22.1624 18.127 19.0236 21.9793 13.4316 21.9793H9.56104L8.37988 27.9531H13.2043C22.9167 27.9531 29.7216 21.9793 29.7216 12.6076C29.7216 5.7659 24.6931 1.49599 16.4567 1.49599Z" fill="#1C67CE"/>
<path d="M40.9633 4.35459C40.6937 3.64567 40.4242 2.93641 40.1546 2.22714C38.7729 2.63826 37.4963 3.20989 36.3438 3.92631L36.6305 4.68134C38.0719 4.558 39.5183 4.46434 40.9633 4.35459Z" fill="#1C67CE"/>
<path d="M49.4302 3.17979C49.2582 2.72684 49.0859 2.27425 48.9136 1.82131C47.8329 1.59644 46.6754 1.47883 45.457 1.47883C45.0791 1.47883 44.7081 1.49277 44.3398 1.51315C44.6466 2.32037 44.9537 3.12759 45.2604 3.93481C46.6714 3.75178 48.0656 3.50975 49.4302 3.17979Z" fill="#1C67CE"/>
<path d="M38.1067 8.57539L36.6263 4.68121C36.0947 4.72697 35.5645 4.7788 35.0358 4.83457C34.2811 5.42658 33.594 6.08902 32.9795 6.81187C33.2658 7.56619 33.5529 8.32014 33.8393 9.0741C35.2456 8.85138 36.6713 8.69873 38.1067 8.57539Z" fill="#1C67CE"/>
<path d="M40.9619 4.35459C41.4063 5.52324 41.8503 6.69153 42.2947 7.86053C43.1197 7.58955 44.0192 7.44262 44.9834 7.44262C45.58 7.44262 46.1374 7.50304 46.6589 7.61637C46.1921 6.38909 45.7259 5.16217 45.2594 3.93489C43.839 4.11971 42.4037 4.24484 40.9619 4.35459Z" fill="#1C67CE"/>
<path d="M50.9062 7.07385C52.2632 6.74567 53.5942 6.32848 54.8851 5.8169C54.7242 5.39291 54.563 4.96893 54.4017 4.5453C53.582 3.75452 52.5867 3.10853 51.4503 2.61661C50.7832 2.82718 50.1079 3.01486 49.4258 3.17967C49.9191 4.47773 50.4128 5.77579 50.9062 7.07385Z" fill="#1C67CE"/>
<path d="M35.3234 12.968C34.8301 11.6699 34.3367 10.3719 33.843 9.07381C32.9296 9.21895 32.0255 9.39698 31.1329 9.60755C30.8208 10.2253 30.5498 10.8706 30.3242 11.5412C30.6184 12.3152 30.9127 13.0892 31.2069 13.8632C32.55 13.4799 33.927 13.1893 35.3234 12.968Z" fill="#1C67CE"/>
<path d="M38.7579 10.2819C39.4132 9.48179 40.2168 8.82436 41.1431 8.34353C40.131 8.41646 39.1186 8.48903 38.1094 8.57554C38.3257 9.14431 38.5416 9.71309 38.7579 10.2819Z" fill="#1C67CE"/>
<path d="M47.2158 7.76194C48.6487 8.2081 49.7683 9.11399 50.5841 10.4246L51.8118 9.4461C51.5111 8.65532 51.2105 7.86454 50.9098 7.07377C49.6993 7.36691 48.4642 7.58749 47.2158 7.76194Z" fill="#1C67CE"/>
<path d="M55.2289 6.71954L55.7813 6.27911C55.6479 6.05246 55.501 5.83582 55.3469 5.62454C55.1928 5.68817 55.0405 5.75574 54.8857 5.81723C55.0001 6.11752 55.1145 6.41853 55.2289 6.71954Z" fill="#1C67CE"/>
<path d="M31.2018 13.8631C30.6806 14.0121 30.1651 14.1795 29.6532 14.3568C29.5438 15.1325 29.4873 15.9319 29.4873 16.7523C29.4873 17.4613 29.5474 18.1451 29.6578 18.8033C30.6452 18.4 31.6551 18.0504 32.6822 17.7573L31.2018 13.8631Z" fill="#1C67CE"/>
<path d="M36.7837 16.8226C36.7701 16.6445 36.7601 16.4647 36.7601 16.2795C36.7601 14.9879 36.9786 13.7764 37.385 12.6889C36.6922 12.7686 36.003 12.8597 35.3184 12.9681C35.8067 14.2533 36.295 15.5377 36.7837 16.8226Z" fill="#1C67CE"/>
<path d="M34.1689 21.6511C35.512 21.2682 36.889 20.9772 38.2854 20.7563L37.9733 19.9352C37.298 19.1104 36.8901 18.0687 36.7918 16.8643C35.4001 17.0856 34.0273 17.3751 32.6885 17.7569L34.1689 21.6511Z" fill="#1C67CE"/>
<path d="M34.1655 21.6511C33.1341 21.9457 32.1202 22.2975 31.1289 22.7022C31.9472 23.9931 33.0558 25.0827 34.4157 25.9293C34.8229 25.7934 35.2326 25.6633 35.6458 25.5457C35.1525 24.2476 34.6588 22.9495 34.1655 21.6511Z" fill="#1C67CE"/>
<path d="M39.7694 24.6505C41.1755 24.4281 42.6012 24.2747 44.0369 24.1517C43.7619 23.4293 43.4874 22.7064 43.2125 21.9835C43.1381 21.9853 43.0638 21.9893 42.9887 21.9893C41.2305 21.9893 39.7959 21.5174 38.7467 20.6898C38.594 20.7119 38.441 20.7323 38.2891 20.7563C38.7828 22.0543 39.2761 23.3524 39.7694 24.6505Z" fill="#1C67CE"/>
<path d="M52.6581 23.4054C52.4637 22.8935 52.2692 22.3816 52.0743 21.8696L49.8339 19.6675C49.3785 19.7161 48.922 19.7597 48.4644 19.8001C48.0565 20.1798 47.6353 20.504 47.2031 20.7793L48.3607 23.8251C49.8028 23.7154 51.2382 23.5899 52.6581 23.4054Z" fill="#1C67CE"/>
<path d="M35.6475 25.5455C35.8073 25.9663 35.9674 26.3871 36.1272 26.8075C37.5608 27.4081 39.1949 27.7866 41.0024 27.9078C40.5898 26.8221 40.1769 25.7361 39.764 24.6503C38.3676 24.8713 36.9906 25.1623 35.6475 25.5455Z" fill="#1C67CE"/>
<path d="M44.0283 24.1519C44.4809 25.3423 44.9335 26.5328 45.3861 27.7229C46.8121 27.4988 48.1416 27.0984 49.3732 26.4878C49.0357 25.6005 48.6983 24.7124 48.3608 23.8251C46.9158 23.9349 45.4694 24.0282 44.0283 24.1519Z" fill="#1C67CE"/>
<path d="M52.85 23.905C53.0327 23.7123 53.2114 23.5111 53.3873 23.3027C53.1453 23.3377 52.9033 23.3738 52.6602 23.4056C52.7234 23.5718 52.7867 23.7384 52.85 23.905Z" fill="#1C67CE"/>
<path d="M15.7585 11.627C15.7585 12.6906 14.8962 13.5529 13.8327 13.5529C12.7695 13.5529 11.9072 12.6906 11.9072 11.627C11.9072 10.5631 12.7695 9.70121 13.8327 9.70121C14.8962 9.70121 15.7585 10.5631 15.7585 11.627Z" fill="#1C67CE"/>
<path d="M14.6745 17.4942C14.6745 18.5578 13.8123 19.42 12.7487 19.42C11.6852 19.42 10.8232 18.5578 10.8232 17.4942C10.8232 16.4307 11.6852 15.5684 12.7487 15.5684C13.8123 15.5684 14.6745 16.4307 14.6745 17.4942Z" fill="#1C67CE"/>
<path d="M48.5349 11.627C48.5349 12.6906 47.6726 13.5529 46.6091 13.5529C45.5455 13.5529 44.6836 12.6906 44.6836 11.627C44.6836 10.5631 45.5455 9.70121 46.6091 9.70121C47.6726 9.70121 48.5349 10.5631 48.5349 11.627Z" fill="#1C67CE"/>
<path d="M47.4528 17.4942C47.4528 18.5578 46.5906 19.42 45.527 19.42C44.4635 19.42 43.6016 18.5578 43.6016 17.4942C43.6016 16.4307 44.4635 15.5684 45.527 15.5684C46.5906 15.5684 47.4528 16.4307 47.4528 17.4942Z" fill="#1C67CE"/>
</svg>
