<svg width="145" height="29" viewBox="0 0 145 29" fill="none" xmlns="http://www.w3.org/2000/svg">
<path d="M101.799 27.1015C101.799 25.8628 102.732 25.0484 103.869 25.0484C104.955 25.0484 105.685 25.7609 105.685 26.8127C105.685 28.0514 104.734 28.8661 103.631 28.8661C102.562 28.8661 101.799 28.1197 101.799 27.1015Z" fill="white"/>
<path d="M69.0905 10.7214C71.6015 10.7214 73.0101 8.99075 73.0101 6.71709C73.0101 5.13911 72.0091 4.20569 70.0747 4.20569H68.1063L66.8168 10.7214H69.0905ZM65.2896 1.52484H70.4479C74.1469 1.52484 76.4037 3.44244 76.4037 6.51332C76.4037 10.7214 73.3493 13.4026 68.9886 13.4026H62.9141L65.2896 1.52484Z" fill="white"/>
<path d="M84.259 8.39698C84.259 7.32808 83.6313 6.63203 82.5284 6.63203C81.2386 6.63203 80.3395 7.66734 80.3395 9.21136C80.3395 10.2806 80.9672 10.9591 82.0701 10.9591C83.3596 10.9591 84.259 9.92384 84.259 8.39698ZM77.0645 9.36401C77.0645 6.32673 79.4232 4.05307 82.715 4.05307C85.6504 4.05307 87.534 5.69897 87.534 8.22717C87.534 11.2812 85.1753 13.5553 81.8835 13.5553C78.9481 13.5553 77.0645 11.8922 77.0645 9.36401Z" fill="white"/>
<path d="M99.5671 4.20587L97.7345 13.4028H94.6805L94.8671 12.4522C94.0527 13.2158 93.0174 13.5551 92.0164 13.5551C90.0652 13.5551 88.7246 12.4861 88.7246 10.4159C88.7246 10.0598 88.7586 9.68661 88.8433 9.27907L89.8614 4.20587H93.0853L92.1351 8.97377C92.0843 9.2115 92.0672 9.41491 92.0672 9.60188C92.0672 10.3819 92.4747 10.8063 93.3059 10.8063C94.392 10.8063 95.1556 10.1446 95.4269 8.75319L96.3432 4.20587H99.5671Z" fill="white"/>
<path d="M107.793 8.39698C107.793 7.32808 107.148 6.63203 106.045 6.63203C104.772 6.63203 103.856 7.66734 103.856 9.21135C103.856 10.2806 104.501 10.9591 105.604 10.9591C106.876 10.9591 107.793 9.92384 107.793 8.39698ZM111.05 8.22717C111.05 11.2984 108.811 13.5553 106.062 13.5553C104.738 13.5553 103.686 13.1138 103.126 12.096L102.872 13.4026H99.8008L102.312 0.812028H105.536L104.721 4.90176C105.383 4.35837 106.197 4.05307 107.165 4.05307C109.15 4.05307 111.05 5.56313 111.05 8.22717Z" fill="white"/>
<path d="M114.105 0.81209H117.329L114.818 13.4027H111.594L114.105 0.81209Z" fill="white"/>
<path d="M120.548 7.90478H124.332C124.349 6.92095 123.653 6.34396 122.618 6.34396C121.532 6.34396 120.853 6.98852 120.548 7.90478ZM127.114 9.6018H120.361C120.48 10.6199 121.176 11.0947 122.448 11.0947C123.263 11.0947 124.06 10.8402 124.671 10.3482L126.011 12.3674C124.858 13.2157 123.483 13.5553 122.092 13.5553C119.139 13.5553 117.205 11.9262 117.205 9.36407C117.205 6.30999 119.462 4.05313 122.771 4.05313C125.57 4.05313 127.301 5.68188 127.301 8.09139C127.301 8.63442 127.216 9.14349 127.114 9.6018Z" fill="white"/>
<path d="M61.8945 23.7249C61.8945 19.6019 64.9318 16.5982 69.3433 16.5982C71.5322 16.5982 73.3136 17.3958 74.1623 18.8379L71.7356 20.7724C71.1758 19.8733 70.3107 19.3813 69.1227 19.3813C66.8151 19.3813 65.2882 21.1627 65.2882 23.5043C65.2882 25.0995 66.3739 26.1684 68.1896 26.1684C69.2586 26.1684 70.2427 25.7608 71.0911 24.7938L73.0762 26.745C71.7356 28.3569 69.9882 28.9507 67.8672 28.9507C64.219 28.9507 61.8945 26.8301 61.8945 23.7249Z" fill="white"/>
<path d="M80.968 23.7078C80.968 22.6389 80.3231 21.9432 79.2202 21.9432C77.9475 21.9432 77.0316 22.9782 77.0316 24.5222C77.0316 25.5914 77.6762 26.27 78.7791 26.27C80.0686 26.27 80.968 25.2347 80.968 23.7078ZM85.0234 19.5169L83.1909 28.7134H80.1365L80.3231 27.8479C79.6106 28.51 78.7283 28.8661 77.6594 28.8661C75.6739 28.8661 73.7734 27.356 73.7734 24.6752C73.7734 21.6208 76.0135 19.3643 78.7623 19.3643C80.0006 19.3643 81.002 19.7375 81.5786 20.6194L81.7995 19.5169H85.0234Z" fill="white"/>
<path d="M93.2687 19.3641L92.7089 22.2655C92.4204 22.2316 92.2334 22.2148 91.9792 22.2148C90.5707 22.2148 89.6716 22.8425 89.3659 24.3697L88.4836 28.7133H85.2598L87.0923 19.5171H90.1467L89.9429 20.5345C90.7577 19.7034 91.8945 19.3641 93.2687 19.3641Z" fill="white"/>
<path d="M92.3672 27.9666L93.538 25.7101C94.3863 26.2532 95.6418 26.5588 96.7279 26.5588C97.78 26.5588 98.204 26.3043 98.204 25.8967C98.204 24.845 93.4361 25.812 93.4361 22.7068C93.4361 20.5007 95.5571 19.3643 98.3398 19.3643C99.6465 19.3643 100.936 19.6352 101.835 20.0939L100.698 22.3504C99.7991 21.8074 98.781 21.6547 97.9666 21.6547C96.9145 21.6547 96.4902 21.9772 96.4902 22.3504C96.4902 23.4533 101.241 22.4691 101.241 25.5403C101.241 27.7464 99.0863 28.8661 96.3547 28.8661C94.7256 28.8661 93.1644 28.4761 92.3672 27.9666Z" fill="white"/>
<path d="M107.074 24.6752C107.074 21.6379 109.45 19.3643 112.776 19.3643C114.863 19.3643 116.441 20.2802 117.136 21.8585L114.387 23.1648C114.031 22.2993 113.403 21.9432 112.606 21.9432C111.299 21.9432 110.349 22.9782 110.349 24.4886C110.349 25.5575 110.977 26.27 112.148 26.27C112.979 26.27 113.641 25.9307 114.133 25.0652L116.492 26.4905C115.609 27.9838 113.946 28.8661 111.927 28.8661C108.991 28.8661 107.074 27.203 107.074 24.6752Z" fill="white"/>
<path d="M124.386 23.7078C124.386 22.6389 123.758 21.9432 122.655 21.9432C121.366 21.9432 120.466 22.9782 120.466 24.5222C120.466 25.5914 121.094 26.27 122.197 26.27C123.486 26.27 124.386 25.2347 124.386 23.7078ZM117.191 24.6752C117.191 21.6379 119.55 19.3643 122.842 19.3643C125.777 19.3643 127.66 21.0098 127.66 23.538C127.66 26.5921 125.302 28.8661 122.01 28.8661C119.075 28.8661 117.191 27.203 117.191 24.6752Z" fill="white"/>
<path d="M144.999 22.4862C144.999 22.8427 144.965 23.2159 144.88 23.6231L143.879 28.7134H140.655L141.605 23.9623C141.656 23.725 141.673 23.5212 141.673 23.3178C141.673 22.5034 141.249 22.0959 140.519 22.0959C139.552 22.0959 138.856 22.6729 138.568 24.081L137.635 28.7134H134.411L135.378 23.9623C135.429 23.7418 135.446 23.5212 135.446 23.3346C135.446 22.5202 135.022 22.0959 134.292 22.0959C133.308 22.0959 132.612 22.6897 132.324 24.1153L131.407 28.7134H128.184L130.016 19.5169H133.071L132.884 20.45C133.664 19.7035 134.631 19.3643 135.633 19.3643C136.82 19.3643 137.872 19.8562 138.398 20.8571C139.247 19.8898 140.401 19.3643 141.775 19.3643C143.658 19.3643 144.999 20.4332 144.999 22.4862Z" fill="white"/>
<path d="M5.8541 1.49602L0.566406 27.9531H6.67241L7.85357 21.9794L10.7246 7.46975L11.9058 1.49602H5.8541Z" fill="white"/>
<path d="M16.4577 1.49602H13.6096L12.4284 7.46975H15.6266C19.9333 7.46975 22.1633 9.54572 22.1633 13.062C22.1633 18.127 19.0245 21.9794 13.4326 21.9794H9.56202L8.38086 27.9531H13.2052C22.9176 27.9531 29.7225 21.9794 29.7225 12.6077C29.7225 5.76593 24.694 1.49602 16.4577 1.49602Z" fill="white"/>
<path d="M40.9633 4.35456C40.6937 3.64564 40.4242 2.93638 40.1546 2.22711C38.7729 2.63823 37.4963 3.20986 36.3438 3.92628L36.6305 4.6813C38.0719 4.55797 39.5183 4.46431 40.9633 4.35456Z" fill="white"/>
<path d="M49.4302 3.17979C49.2582 2.72684 49.0859 2.27425 48.9136 1.82131C47.8329 1.59644 46.6754 1.47883 45.457 1.47883C45.0791 1.47883 44.7081 1.49277 44.3398 1.51315C44.6466 2.32037 44.9537 3.12759 45.2604 3.93481C46.6714 3.75178 48.0656 3.50975 49.4302 3.17979Z" fill="white"/>
<path d="M38.1057 8.57542L36.6253 4.68124C36.0937 4.727 35.5636 4.77883 35.0348 4.8346C34.2802 5.42661 33.593 6.08905 32.9785 6.8119C33.2649 7.56622 33.5519 8.32017 33.8383 9.07413C35.2447 8.85141 36.6704 8.69876 38.1057 8.57542Z" fill="white"/>
<path d="M40.9629 4.35459C41.4073 5.52324 41.8513 6.69153 42.2956 7.86053C43.1207 7.58955 44.0202 7.44262 44.9843 7.44262C45.581 7.44262 46.1383 7.50304 46.6599 7.61637C46.193 6.38909 45.7269 5.16217 45.2603 3.93489C43.84 4.11971 42.4047 4.24484 40.9629 4.35459Z" fill="white"/>
<path d="M50.9062 7.07382C52.2632 6.74564 53.5942 6.32845 54.8851 5.81687C54.7242 5.39288 54.563 4.9689 54.4017 4.54527C53.582 3.75449 52.5867 3.1085 51.4503 2.61658C50.7832 2.82715 50.1079 3.01483 49.4258 3.17964C49.9191 4.4777 50.4128 5.77576 50.9062 7.07382Z" fill="white"/>
<path d="M35.3234 12.968C34.8301 11.6699 34.3367 10.3719 33.843 9.07381C32.9296 9.21895 32.0255 9.39698 31.1329 9.60755C30.8208 10.2253 30.5498 10.8706 30.3242 11.5412C30.6184 12.3152 30.9127 13.0892 31.2069 13.8632C32.55 13.4799 33.927 13.1893 35.3234 12.968Z" fill="white"/>
<path d="M38.7579 10.2819C39.4132 9.48182 40.2168 8.82439 41.1431 8.34356C40.131 8.41649 39.1186 8.48906 38.1094 8.57557C38.3257 9.14434 38.5416 9.71312 38.7579 10.2819Z" fill="white"/>
<path d="M47.2148 7.76194C48.6477 8.2081 49.7674 9.11399 50.5832 10.4246L51.8108 9.4461C51.5101 8.65532 51.2095 7.86454 50.9088 7.07377C49.6984 7.36691 48.4632 7.58749 47.2148 7.76194Z" fill="white"/>
<path d="M55.2299 6.71951L55.7822 6.27908C55.6489 6.05243 55.502 5.83579 55.3479 5.62451C55.1938 5.68814 55.0415 5.75571 54.8867 5.8172C55.0011 6.11749 55.1155 6.4185 55.2299 6.71951Z" fill="white"/>
<path d="M31.2009 13.8631C30.6796 14.0122 30.1641 14.1795 29.6522 14.3568C29.5428 15.1326 29.4863 15.9319 29.4863 16.7524C29.4863 17.4613 29.5464 18.1452 29.6569 18.8033C30.6443 18.4001 31.6542 18.0504 32.6813 17.7573L31.2009 13.8631Z" fill="white"/>
<path d="M36.7837 16.8225C36.7701 16.6445 36.7601 16.4647 36.7601 16.2795C36.7601 14.9879 36.9786 13.7763 37.385 12.6888C36.6922 12.7686 36.003 12.8597 35.3184 12.968C35.8067 14.2532 36.295 15.5377 36.7837 16.8225Z" fill="white"/>
<path d="M34.1679 21.6511C35.511 21.2682 36.8881 20.9772 38.2844 20.7563L37.9723 19.9352C37.297 19.1104 36.8891 18.0687 36.7908 16.8643C35.3991 17.0856 34.0263 17.3751 32.6875 17.7569L34.1679 21.6511Z" fill="white"/>
<path d="M34.1655 21.6511C33.1341 21.9457 32.1202 22.2975 31.1289 22.7022C31.9472 23.9931 33.0558 25.0827 34.4157 25.9293C34.8229 25.7934 35.2326 25.6633 35.6458 25.5457C35.1525 24.2476 34.6588 22.9495 34.1655 21.6511Z" fill="white"/>
<path d="M39.7694 24.6504C41.1755 24.4281 42.6012 24.2747 44.0369 24.1517C43.7619 23.4292 43.4874 22.7064 43.2125 21.9835C43.1381 21.9853 43.0638 21.9892 42.9887 21.9892C41.2305 21.9892 39.7959 21.5173 38.7467 20.6897C38.594 20.7119 38.441 20.7323 38.2891 20.7562C38.7828 22.0543 39.2761 23.3524 39.7694 24.6504Z" fill="white"/>
<path d="M52.6581 23.4055C52.4637 22.8935 52.2692 22.3816 52.0743 21.8697L49.8339 19.6675C49.3785 19.7161 48.922 19.7597 48.4644 19.8001C48.0565 20.1798 47.6353 20.504 47.2031 20.7793L48.3607 23.8252C49.8028 23.7154 51.2382 23.5899 52.6581 23.4055Z" fill="white"/>
<path d="M35.6465 25.5455C35.8063 25.9663 35.9664 26.3871 36.1262 26.8075C37.5598 27.4081 39.1939 27.7866 41.0014 27.9078C40.5888 26.8221 40.1759 25.7361 39.763 24.6503C38.3667 24.8713 36.9896 25.1623 35.6465 25.5455Z" fill="white"/>
<path d="M44.0273 24.1519C44.4799 25.3423 44.9325 26.5328 45.3851 27.7229C46.8112 27.4987 48.1407 27.0983 49.3722 26.4877C49.0348 25.6004 48.6973 24.7124 48.3598 23.8251C46.9148 23.9349 45.4684 24.0282 44.0273 24.1519Z" fill="white"/>
<path d="M52.85 23.905C53.0327 23.7123 53.2114 23.5111 53.3873 23.3027C53.1453 23.3377 52.9033 23.3738 52.6602 23.4056C52.7234 23.5718 52.7867 23.7384 52.85 23.905Z" fill="white"/>
<path d="M15.7575 11.627C15.7575 12.6906 14.8953 13.5529 13.8317 13.5529C12.7685 13.5529 11.9062 12.6906 11.9062 11.627C11.9062 10.5631 12.7685 9.70121 13.8317 9.70121C14.8953 9.70121 15.7575 10.5631 15.7575 11.627Z" fill="white"/>
<path d="M14.6736 17.4942C14.6736 18.5578 13.8113 19.42 12.7477 19.42C11.6842 19.42 10.8223 18.5578 10.8223 17.4942C10.8223 16.4307 11.6842 15.5684 12.7477 15.5684C13.8113 15.5684 14.6736 16.4307 14.6736 17.4942Z" fill="white"/>
<path d="M48.5349 11.627C48.5349 12.6906 47.6726 13.5529 46.6091 13.5529C45.5455 13.5529 44.6836 12.6906 44.6836 11.627C44.6836 10.5631 45.5455 9.70121 46.6091 9.70121C47.6726 9.70121 48.5349 10.5631 48.5349 11.627Z" fill="white"/>
<path d="M47.4528 17.4942C47.4528 18.5578 46.5906 19.42 45.527 19.42C44.4635 19.42 43.6016 18.5578 43.6016 17.4942C43.6016 16.4307 44.4635 15.5684 45.527 15.5684C46.5906 15.5684 47.4528 16.4307 47.4528 17.4942Z" fill="white"/>
</svg>
