<svg width="16" height="16" viewBox="0 0 16 16" fill="none" xmlns="http://www.w3.org/2000/svg">
<path d="M15 14.5L11.5 11M13.1667 6.83333C13.1667 7.59938 13.0158 8.35792 12.7226 9.06565C12.4295 9.77339 11.9998 10.4164 11.4581 10.9581C10.9164 11.4998 10.2734 11.9295 9.56565 12.2226C8.85792 12.5158 8.09938 12.6667 7.33333 12.6667C6.56729 12.6667 5.80875 12.5158 5.10101 12.2226C4.39328 11.9295 3.75022 11.4998 3.20854 10.9581C2.66687 10.4164 2.23719 9.77339 1.94404 9.06565C1.65088 8.35792 1.5 7.59938 1.5 6.83333C1.5 5.28624 2.11458 3.80251 3.20854 2.70854C4.30251 1.61458 5.78624 1 7.33333 1C8.88043 1 10.3642 1.61458 11.4581 2.70854C12.5521 3.80251 13.1667 5.28624 13.1667 6.83333Z" stroke="black" stroke-opacity="0.65" stroke-width="2" stroke-linecap="round" stroke-linejoin="round"/>
</svg>
