<svg width="17" height="17" viewBox="0 0 17 17" fill="none" xmlns="http://www.w3.org/2000/svg">
<path d="M3.32825 16.2935C3.28507 16.2935 3.24242 16.284 3.20331 16.2657C3.16419 16.2475 3.12956 16.2208 3.10185 16.1877C3.07415 16.1546 3.05404 16.1158 3.04296 16.0741C3.03187 16.0324 3.03008 15.9887 3.0377 15.9462L3.94986 10.6318L0.0882122 6.87088C0.0490993 6.83242 0.0214783 6.78381 0.00844814 6.73053C-0.00458198 6.67724 -0.00250561 6.62138 0.0144443 6.56921C0.0313942 6.51703 0.0625469 6.47062 0.104407 6.43516C0.146267 6.39971 0.197179 6.37662 0.251429 6.36849L5.58782 5.59292L7.97473 0.756599C7.99896 0.707272 8.03654 0.665724 8.08319 0.63667C8.12984 0.607616 8.1837 0.592218 8.23866 0.592224C8.29361 0.592218 8.34747 0.607616 8.39412 0.63667C8.44077 0.665724 8.47835 0.707272 8.50258 0.756599L10.8895 5.59176L16.2259 6.36734C16.2801 6.37547 16.331 6.39855 16.3729 6.43401C16.4148 6.46946 16.4459 6.51588 16.4629 6.56805C16.4798 6.62022 16.4819 6.67608 16.4689 6.72937C16.4558 6.78266 16.4282 6.83126 16.3891 6.86972L12.5286 10.6341L13.4396 15.9485C13.449 16.0028 13.4429 16.0587 13.4222 16.1097C13.4015 16.1608 13.3669 16.205 13.3223 16.2374C13.2777 16.2698 13.225 16.2891 13.17 16.2931C13.1151 16.2971 13.0601 16.2856 13.0113 16.2599L8.23866 13.7515L3.466 16.2599C3.42346 16.282 3.3762 16.2936 3.32825 16.2935Z" fill="#FFBB54"/>
</svg>
