<svg width="58" height="21" viewBox="0 0 58 21" fill="none" xmlns="http://www.w3.org/2000/svg">
<path d="M56.7338 15.1363C56.6181 16.3423 56.3685 16.5012 55.2197 16.6699L49.845 17.4144C49.7919 17.4218 49.7384 17.4264 49.6847 17.4284C49.7869 17.0763 49.839 16.7117 49.8395 16.3451C49.8402 15.7866 49.7175 15.2348 49.4801 14.7293C49.2426 14.2238 48.8963 13.7771 48.466 13.4211C48.0357 13.0651 47.5319 12.8087 46.9909 12.6702C46.4498 12.5317 45.8849 12.5145 45.3364 12.6199C44.788 12.7253 44.2696 12.9507 43.8185 13.28C43.3673 13.6092 42.9946 14.0341 42.7269 14.5242C42.4592 15.0144 42.3032 15.5577 42.2701 16.1152C42.2369 16.6727 42.3275 17.2306 42.5352 17.749L15.7959 16.9125C15.8237 16.7279 15.8377 16.5415 15.8377 16.3548C15.8377 15.3502 15.4386 14.3867 14.7282 13.6763C14.0178 12.9659 13.0543 12.5668 12.0497 12.5668C11.045 12.5668 10.0815 12.9659 9.3711 13.6763C8.66071 14.3867 8.26161 15.3502 8.26161 16.3548C8.26161 16.4664 8.26161 16.5737 8.27555 16.6825L3.35821 16.5152C3.11719 16.5099 2.87992 16.4544 2.6615 16.3524C2.44307 16.2504 2.24827 16.104 2.08948 15.9226C1.42173 15.2483 1.03333 14.3466 1.00205 13.3981C0.970766 12.4495 1.29891 11.5242 1.92078 10.8073C2.13521 10.5391 2.2661 10.2138 2.29722 9.87181L2.59279 6.66515C2.60604 6.50914 2.67142 6.36213 2.77841 6.24782C2.88539 6.1335 3.02775 6.05852 3.18254 6.03497L8.12777 5.23749C8.27834 5.17754 8.50281 5.08831 8.77607 4.98514C13.96 2.86016 19.5166 1.79358 25.1189 1.84819C33.0045 2.00852 41.5956 6.07959 42.8169 6.82688C43.068 6.97803 43.3524 7.06516 43.645 7.08062C56.3769 7.80561 56.9736 12.6491 56.7338 15.1363Z" stroke="#595959" stroke-width="1.7" stroke-miterlimit="10"/>
<path d="M49.8395 16.3423C49.8391 16.7088 49.787 17.0735 49.6848 17.4255C49.4115 18.3433 48.801 19.1235 47.976 19.6095C47.1509 20.0954 46.1725 20.251 45.2374 20.0449C44.3023 19.8389 43.4799 19.2864 42.9355 18.4987C42.3911 17.711 42.1651 16.7464 42.3029 15.7989C42.4407 14.8513 42.9321 13.9911 43.6783 13.3911C44.4245 12.7911 45.3702 12.4958 46.3253 12.5646C47.2803 12.6334 48.1739 13.0613 48.8264 13.7621C49.4788 14.4629 49.8418 15.3847 49.8423 16.3423H49.8395Z" stroke="#595959" stroke-width="1.7" stroke-miterlimit="10"/>
<path d="M15.8351 16.3424C15.8351 16.5291 15.8212 16.7155 15.7933 16.9001C15.6559 17.8178 15.1865 18.6531 14.474 19.2476C13.7616 19.842 12.8558 20.1544 11.9284 20.1253C11.001 20.0963 10.1165 19.7278 9.44269 19.0899C8.76889 18.452 8.35267 17.589 8.27298 16.6645C8.26461 16.5558 8.25903 16.4484 8.25903 16.3369C8.25903 15.3322 8.65813 14.3687 9.36853 13.6583C10.0789 12.9479 11.0424 12.5488 12.0471 12.5488C13.0517 12.5488 14.0152 12.9479 14.7256 13.6583C15.436 14.3687 15.8351 15.3322 15.8351 16.3369V16.3424Z" stroke="#595959" stroke-width="1.7" stroke-miterlimit="10"/>
<path d="M12.0022 4.18066C12.1521 4.7172 12.4491 5.20114 12.8595 5.57783C13.27 5.95452 13.7775 6.20895 14.3249 6.3124C17.5149 7.24233 37.6234 8.08443 38.3819 8.10673C39.1668 8.12904 41.7112 7.90179 42.1169 7.07503" stroke="#595959" stroke-width="1.7" stroke-miterlimit="10"/>
</svg>
