<svg width="58" height="19" viewBox="0 0 58 19" fill="none" xmlns="http://www.w3.org/2000/svg">
<path d="M50.5434 13.5784C50.543 13.9979 50.481 14.415 50.3594 14.8165V14.8165C50.2834 15.0656 50.184 15.3069 50.0624 15.5373C49.6758 16.2543 49.1022 16.8534 48.4027 17.2709C47.7031 17.6884 46.9036 17.9089 46.089 17.9089C45.2743 17.9089 44.4748 17.6884 43.7753 17.2709C43.0757 16.8534 42.5022 16.2543 42.1155 15.5373C42.0569 15.4229 42.0026 15.3072 41.9552 15.1887C41.745 14.6779 41.6375 14.1307 41.6387 13.5784C41.6959 12.4352 42.1903 11.3577 43.0197 10.5688C43.8491 9.77991 44.9499 9.33997 46.0945 9.33997C47.2392 9.33997 48.34 9.77991 49.1694 10.5688C49.9988 11.3577 50.4932 12.4352 50.5504 13.5784H50.5434Z" stroke="#595959" stroke-width="1.7" stroke-miterlimit="10"/>
<path d="M16.2604 13.5784C16.26 13.9979 16.198 14.415 16.0764 14.8165V14.8165C16.0016 15.066 15.9021 15.3075 15.7794 15.5373C15.3785 16.2843 14.775 16.9031 14.0382 17.3227C13.3015 17.7422 12.4613 17.9455 11.6143 17.9091C10.7672 17.8727 9.9476 17.5981 9.24955 17.1169C8.5515 16.6357 8.00331 15.9674 7.66794 15.1887C7.57394 14.9602 7.50114 14.7236 7.45045 14.4818V14.4818C7.38635 14.185 7.3541 13.8821 7.35425 13.5784C7.41146 12.4352 7.90589 11.3577 8.73525 10.5688C9.56462 9.77991 10.6655 9.33997 11.8101 9.33997C12.9548 9.33997 14.0556 9.77991 14.885 10.5688C15.7143 11.3577 16.2088 12.4352 16.266 13.5784H16.2604Z" stroke="#595959" stroke-width="1.7" stroke-miterlimit="10"/>
<path d="M56.4878 13.8183C56.5803 14.2594 56.5037 14.7192 56.2731 15.1065C56.1908 15.2386 56.0762 15.3475 55.94 15.4229C55.8039 15.4983 55.6508 15.5377 55.4951 15.5374H50.0578C50.1793 15.307 50.2787 15.0657 50.3547 14.8165C50.4764 14.4151 50.5384 13.998 50.5388 13.5785C50.4816 12.4353 49.9871 11.3578 49.1578 10.5689C48.3284 9.78001 47.2275 9.34006 46.0829 9.34006C44.9383 9.34006 43.8374 9.78001 43.008 10.5689C42.1787 11.3578 41.6843 12.4353 41.627 13.5785C41.6258 14.1308 41.7334 14.678 41.9435 15.1888C41.9909 15.3073 42.0453 15.423 42.1039 15.5374H15.7786C15.9012 15.3075 16.0007 15.0661 16.0755 14.8165V14.8165C16.1971 14.4151 16.2591 13.998 16.2596 13.5785C16.2023 12.4353 15.7079 11.3578 14.8785 10.5689C14.0492 9.78001 12.9483 9.34006 11.8037 9.34006C10.659 9.34006 9.55819 9.78001 8.72882 10.5689C7.89946 11.3578 7.40503 12.4353 7.34782 13.5785C7.34767 13.8822 7.37992 14.1851 7.44402 14.4819L7.20422 14.4513H3.06902C2.44826 14.3253 1.86913 14.0453 1.38482 13.6371C1.26394 13.5412 1.16646 13.4191 1.09979 13.2799C1.03312 13.1408 0.999002 12.9883 1.00002 12.834V10.6521C1.10146 10.1803 1.33784 9.74826 1.68039 9.40844C1.79817 9.28494 1.88977 9.13889 1.94966 8.97908C2.00956 8.81928 2.03653 8.64901 2.02894 8.47851L1.93553 5.9564C1.92773 5.77722 1.97772 5.60027 2.07813 5.45166C2.17854 5.30305 2.32406 5.19065 2.49321 5.13103C5.24955 4.1788 14.178 3.90135 16.3822 3.84837C16.5345 3.84422 16.6833 3.80198 16.8151 3.7255C16.9469 3.64903 17.0574 3.54076 17.1365 3.41059L17.973 2.03591C18.0299 1.93879 18.1097 1.8571 18.2054 1.79803C18.3012 1.73896 18.41 1.70431 18.5223 1.69712C18.7544 1.68639 18.983 1.75634 19.1692 1.8951C19.329 2.01896 19.5248 2.08748 19.7269 2.09028H20.0894C20.1844 2.09028 20.2785 2.10899 20.3663 2.14535C20.4541 2.18171 20.5339 2.23501 20.6011 2.3022C20.8227 2.52425 20.9475 2.82498 20.9482 3.13872V4.8508C20.9482 4.86417 20.9509 4.8774 20.956 4.88975C20.9611 4.9021 20.9686 4.91332 20.9781 4.92277C20.9875 4.93222 20.9987 4.93972 21.0111 4.94483C21.0234 4.94995 21.0367 4.95258 21.05 4.95258H37.2911C37.5281 4.94142 37.7651 4.93027 38.0035 4.92191C47.5649 4.59706 54.9863 7.89295 56.0473 8.75178C57.1319 9.6343 56.7932 11.2613 56.3177 12.3474C56.0096 13.0543 56.1462 13.3415 56.2787 13.4628C56.3852 13.5554 56.4586 13.6802 56.4878 13.8183V13.8183Z" stroke="#595959" stroke-width="1.7" stroke-miterlimit="10"/>
<path d="M28.0669 0.817383L37.6339 4.93864" stroke="#595959" stroke-width="1.7" stroke-miterlimit="10"/>
<path d="M20.9319 8.71777H25.4759" stroke="#595959" stroke-width="1.7" stroke-miterlimit="10"/>
</svg>
