<svg width="55" height="25" viewBox="0 0 55 25" fill="none" xmlns="http://www.w3.org/2000/svg">
<path d="M39.1262 7.00293C38.132 7.82727 34.0574 7.97228 32.3212 7.99711C31.8535 8.00364 31.4067 7.99711 30.9338 7.96314C27.9538 7.76979 14.7252 6.91802 11.7715 6.77431C9.77396 6.67764 8.32778 3.26271 7.91626 2.17578" stroke="#595959" stroke-width="1.7" stroke-miterlimit="10"/>
<path d="M53.3324 19.133C52.9026 20.4211 48.9781 20.8509 48.9781 20.8509H46.9506H46.82C46.8995 20.5299 46.9394 20.2004 46.9388 19.8698C46.9451 19.3222 46.8422 18.7788 46.6362 18.2713C46.4303 17.7639 46.1254 17.3025 45.7392 16.9141C45.3531 16.5258 44.8935 16.2181 44.3873 16.0092C43.881 15.8003 43.3383 15.6943 42.7906 15.6973C42.243 15.7004 41.7014 15.8124 41.1975 16.0269C40.6936 16.2414 40.2375 16.5541 39.8557 16.9467C39.4739 17.3394 39.1741 17.8041 38.9738 18.3138C38.7735 18.8235 38.6766 19.368 38.6889 19.9155C38.6889 20.0461 38.6968 20.1768 38.7098 20.3074L12.2892 19.3929L12.0579 19.3825C12.0083 18.4101 11.6163 17.4866 10.9512 16.7755C10.2861 16.0644 9.39092 15.6115 8.42402 15.497C7.45712 15.3825 6.48089 15.6137 5.66811 16.1498C4.85534 16.6859 4.25844 17.4923 3.98306 18.4262C3.94058 18.5802 3.84918 18.7163 3.72264 18.8138C3.5961 18.9114 3.44129 18.9652 3.28152 18.9671H2.28866C2.13878 18.9665 1.99265 18.9201 1.86984 18.8342C1.74703 18.7483 1.6534 18.6269 1.60149 18.4863C-0.329373 13.2542 4.10847 5.98011 4.88448 4.76255C4.9591 4.64548 4.99855 4.50945 4.99813 4.37063V3.19487C4.99828 3.09791 5.01777 3.00196 5.05546 2.91263C5.09315 2.82331 5.14828 2.74239 5.21762 2.67463C5.28696 2.60687 5.36913 2.55362 5.4593 2.51801C5.54948 2.48239 5.64585 2.46512 5.74278 2.4672L7.75856 2.5077C14.1151 0.928966 20.7139 0.574283 27.203 1.46258C31.0974 2.16673 39.5929 7.41324 39.5929 7.41324C40.5375 8.23888 46.8187 9.51916 47.2929 9.61583C47.3132 9.61938 47.3333 9.62418 47.353 9.6302C54.3109 11.548 53.3324 19.133 53.3324 19.133Z" stroke="#595959" stroke-width="1.7" stroke-miterlimit="10"/>
<path d="M12.0706 19.5745C12.0764 20.6651 11.6523 21.714 10.8903 22.4941C10.1282 23.2742 9.08948 23.7227 7.9991 23.7424C6.90873 23.7622 5.85447 23.3515 5.0647 22.5995C4.27492 21.8474 3.81321 20.8145 3.77956 19.7245C3.74592 18.6345 4.14306 17.5751 4.88495 16.7758C5.62685 15.9764 6.65377 15.5016 7.74329 15.454C8.83281 15.4065 9.8972 15.79 10.7059 16.5217C11.5146 17.2533 12.0026 18.2741 12.064 19.3629V19.3629C12.0706 19.4348 12.0706 19.5027 12.0706 19.5745Z" stroke="#595959" stroke-width="1.7" stroke-miterlimit="10"/>
<path d="M46.9509 19.8608C46.9514 20.1915 46.9115 20.521 46.832 20.8419C46.601 21.7854 46.0445 22.6171 45.2605 23.1906C44.4766 23.7641 43.5154 24.0425 42.5462 23.977C41.5771 23.9114 40.6622 23.506 39.9626 22.8321C39.263 22.1583 38.8237 21.2592 38.7218 20.2932C38.7076 20.1495 38.7007 20.0052 38.7009 19.8608C38.7009 18.7668 39.1355 17.7176 39.9091 16.944C40.6827 16.1704 41.7319 15.7358 42.8259 15.7358C43.9199 15.7358 44.9691 16.1704 45.7427 16.944C46.5163 17.7176 46.9509 18.7668 46.9509 19.8608V19.8608Z" stroke="#595959" stroke-width="1.7" stroke-miterlimit="10"/>
</svg>
