<svg width="58" height="23" viewBox="0 0 58 23" fill="none" xmlns="http://www.w3.org/2000/svg">
<path d="M8.23975 5.71118L9.24636 7.27687C9.2962 7.35392 9.36454 7.41725 9.44516 7.46108C9.52577 7.50492 9.61608 7.52787 9.70784 7.52782H28.6439L47.1867 7.99209" stroke="#1C67CE" stroke-width="1.7" stroke-miterlimit="10"/>
<path d="M42.9062 18.2367L42.9132 18.2701C43.1462 19.2272 43.6939 20.0782 44.4684 20.6867C45.2429 21.2953 46.1993 21.6261 47.1843 21.6261C48.1693 21.6261 49.1257 21.2953 49.9002 20.6867C50.6748 20.0782 51.2224 19.2272 51.4554 18.2701L51.4638 18.2339C51.5422 17.9046 51.582 17.5672 51.5823 17.2287C51.5819 16.6091 51.4507 15.9965 51.1975 15.431C50.9443 14.8655 50.5747 14.3597 50.1128 13.9467C49.9971 13.8449 49.8786 13.7501 49.7559 13.6679L49.6974 13.6274C49.5956 13.5563 49.4938 13.488 49.3879 13.4281L49.2833 13.3709C49.1913 13.3207 49.0965 13.2719 49.0044 13.2315C48.964 13.212 48.9222 13.1952 48.8818 13.1771C48.7869 13.1381 48.6907 13.1018 48.5946 13.0698C48.5527 13.0558 48.5109 13.0405 48.4691 13.0279C48.3645 12.9973 48.2585 12.9708 48.1526 12.9471C48.1177 12.9387 48.0829 12.9289 48.0466 12.922C47.7555 12.8651 47.4594 12.8375 47.1627 12.8397C47.086 12.8397 47.0079 12.8481 46.9299 12.8523C46.8518 12.8565 46.7598 12.8592 46.6747 12.869C46.0593 12.9413 45.4661 13.1429 44.9341 13.4606C44.4021 13.7783 43.9433 14.2049 43.5878 14.7125C43.2323 15.2201 42.9882 15.7971 42.8714 16.4056C42.7547 17.0142 42.768 17.6406 42.9104 18.2436L42.9062 18.2367Z" stroke="#1C67CE" stroke-width="1.7" stroke-miterlimit="10" stroke-linejoin="bevel"/>
<path d="M8.32877 18.2046V18.2339C8.55359 19.1971 9.09668 20.0564 9.87024 20.6727C10.6438 21.2891 11.6026 21.6266 12.5917 21.6306C13.5808 21.6346 14.5423 21.305 15.3209 20.6949C16.0995 20.0849 16.6495 19.2301 16.8822 18.2688L16.8906 18.2367C17.0273 17.6567 17.0448 17.0551 16.9418 16.4682C16.8389 15.8813 16.6177 15.3214 16.2917 14.8227C15.9657 14.3239 15.5417 13.8966 15.0455 13.5667C14.5492 13.2369 13.9911 13.0114 13.4051 12.9039H13.3897C13.2503 12.8802 13.1179 12.862 12.9798 12.8509H12.9143C12.786 12.8425 12.655 12.837 12.5239 12.8383C11.8721 12.8523 11.2316 13.0109 10.6486 13.3029C10.0657 13.5948 9.55498 14.0127 9.15344 14.5264C8.75191 15.04 8.46961 15.6365 8.32698 16.2727C8.18435 16.9088 8.18496 17.5687 8.32877 18.2046V18.2046Z" stroke="#1C67CE" stroke-width="1.7" stroke-miterlimit="10"/>
<path d="M12.6544 3.46229L8.55123 5.75018C8.42321 5.82104 8.2863 5.87449 8.14413 5.90911L2.60636 7.23361C2.33956 7.29727 2.09979 7.44382 1.92145 7.65221C1.74311 7.86061 1.63537 8.12015 1.61369 8.39358L1.00443 15.9432C0.976749 16.2774 1.07965 16.6094 1.29153 16.8693C1.5034 17.1293 1.80776 17.2971 2.1407 17.3374L7.99634 18.061C7.98937 18.0247 7.98658 17.9885 7.97961 17.9522L7.97264 17.9006C7.9587 17.8044 7.94754 17.7082 7.93918 17.6106V17.5716C7.92245 17.3484 7.92245 17.1242 7.93918 16.901C8.02802 15.7342 8.54602 14.6418 9.39314 13.8346C10.2403 13.0274 11.3564 12.5627 12.5261 12.5302C12.8415 12.5249 13.1566 12.5501 13.4672 12.6055C13.8747 12.6803 14.2705 12.8092 14.6439 12.9889C15.1121 13.2118 15.5402 13.5105 15.9112 13.8728C16.3578 14.3097 16.7121 14.8319 16.953 15.4084C17.194 15.9849 17.3166 16.6038 17.3138 17.2286C17.3129 17.4011 17.3022 17.5733 17.2817 17.7445C17.2817 17.7766 17.272 17.8072 17.2678 17.8393C17.2552 17.9327 17.2455 18.0261 17.2273 18.1181H42.5739C42.5669 18.0819 42.5628 18.0456 42.5558 18.0094L42.5446 17.9355C42.5307 17.8518 42.5209 17.7668 42.5126 17.6831V17.612C42.5056 17.5256 42.5014 17.4378 42.4986 17.3513V17.2858C42.4986 17.1952 42.4986 17.1059 42.4986 17.0153V16.9637C42.4986 16.8675 42.514 16.7713 42.5251 16.6751V16.6389C42.5673 16.3065 42.6439 15.9794 42.7538 15.6629C43.0464 14.8356 43.565 14.1068 44.2509 13.5592C44.9367 13.0117 45.7622 12.6672 46.6338 12.565C46.9676 12.5263 47.3046 12.523 47.639 12.5553C47.9815 12.5875 48.3192 12.6586 48.6457 12.7672C49.5856 13.0762 50.4042 13.6736 50.9852 14.4746C51.5661 15.2755 51.8798 16.2392 51.8816 17.2286C51.8807 17.4006 51.87 17.5724 51.8495 17.7431C51.8495 17.7766 51.8398 17.81 51.8356 17.8435C51.823 17.9355 51.8133 18.0275 51.7952 18.1223H56.6749C56.6893 18.1223 56.7036 18.1191 56.7167 18.1128C56.7297 18.1065 56.7411 18.0974 56.7502 18.0861C56.7615 18.0698 56.7689 18.0512 56.7718 18.0316C56.7747 18.012 56.773 17.992 56.7669 17.9731L56.6107 12.8508C56.4406 10.8292 54.005 9.46433 51.968 8.91083C51.9485 8.91083 51.9276 8.90246 51.9067 8.89828C51.8675 8.89288 51.8289 8.88449 51.791 8.87319C49.6243 8.31725 47.4121 7.95657 45.1811 7.79547C45.1042 7.79488 45.0278 7.7841 44.9538 7.7634C44.7754 7.6672 44.6023 7.56156 44.4352 7.44692C40.2802 4.72482 35.7285 2.66297 30.9421 1.33474C30.8813 1.31746 30.8193 1.30441 30.7567 1.2957C29.5842 1.14234 28.3656 1.04057 27.1318 0.993163C26.9031 0.984798 26.6703 0.979221 26.4346 0.97225V7.54312H26.1293V0.969461H26.2172C25.811 0.960167 25.4039 0.955984 24.9958 0.956914C22.2793 0.971826 19.5668 1.17166 16.8774 1.55503C16.5958 1.59365 16.3166 1.64764 16.0409 1.71675C15.7491 1.78685 15.4678 1.89514 15.2044 2.03881L12.9597 3.28662L12.6544 3.46229Z" stroke="#1C67CE" stroke-width="1.7" stroke-miterlimit="10"/>
</svg>
