<svg width="59" height="22" viewBox="0 0 59 22" fill="none" xmlns="http://www.w3.org/2000/svg">
<path d="M51.2556 15.9385C51.2552 16.358 51.1932 16.7751 51.0716 17.1766V17.1766C50.9956 17.4257 50.8961 17.667 50.7746 17.8974C50.3879 18.6144 49.8144 19.2135 49.1148 19.631C48.4153 20.0486 47.6158 20.269 46.8011 20.269C45.9865 20.269 45.187 20.0486 44.4874 19.631C43.7879 19.2135 43.2143 18.6144 42.8277 17.8974C42.7691 17.783 42.7147 17.6673 42.6673 17.5488C42.4572 17.038 42.3496 16.4909 42.3508 15.9385C42.4081 14.7953 42.9025 13.7178 43.7318 12.9289C44.5612 12.14 45.6621 11.7001 46.8067 11.7001C47.9513 11.7001 49.0522 12.14 49.8816 12.9289C50.7109 13.7178 51.2054 14.7953 51.2626 15.9385H51.2556Z" stroke="#595959" stroke-width="1.7" stroke-miterlimit="10"/>
<path d="M16.9706 15.9385C16.9702 16.358 16.9082 16.7751 16.7866 17.1766V17.1766C16.7118 17.4261 16.6123 17.6676 16.4896 17.8974C16.0887 18.6444 15.4852 19.2632 14.7484 19.6828C14.0117 20.1023 13.1715 20.3056 12.3245 20.2692C11.4774 20.2328 10.6578 19.9582 9.95975 19.477C9.2617 18.9958 8.71351 18.3275 8.37815 17.5488C8.28415 17.3204 8.21134 17.0837 8.16065 16.842V16.842C8.09655 16.5451 8.0643 16.2422 8.06445 15.9385C8.12167 14.7953 8.61609 13.7178 9.44546 12.9289C10.2748 12.14 11.3757 11.7001 12.5203 11.7001C13.665 11.7001 14.7658 12.14 15.5952 12.9289C16.4245 13.7178 16.919 14.7953 16.9762 15.9385H16.9706Z" stroke="#595959" stroke-width="1.7" stroke-miterlimit="10"/>
<path d="M57.1978 16.1784C57.2903 16.6196 57.2137 17.0794 56.9831 17.4666C56.9008 17.5987 56.7861 17.7076 56.65 17.783C56.5138 17.8584 56.3607 17.8978 56.2051 17.8975H50.7677C50.8893 17.6671 50.9887 17.4258 51.0647 17.1767C51.1863 16.7752 51.2483 16.3581 51.2487 15.9386C51.1915 14.7954 50.6971 13.7179 49.8677 12.929C49.0384 12.1401 47.9375 11.7002 46.7929 11.7002C45.6482 11.7002 44.5474 12.1401 43.718 12.929C42.8886 13.7179 42.3942 14.7954 42.337 15.9386C42.3358 16.4909 42.4433 17.0381 42.6535 17.5489C42.7009 17.6674 42.7553 17.7831 42.8138 17.8975H16.4885C16.6112 17.6677 16.7107 17.4262 16.7855 17.1767C16.9071 16.7752 16.9691 16.3581 16.9695 15.9386C16.9123 14.7954 16.4179 13.7179 15.5885 12.929C14.7591 12.1401 13.6583 11.7002 12.5136 11.7002C11.369 11.7002 10.2681 12.1401 9.43878 12.929C8.60942 13.7179 8.11499 14.7954 8.05778 15.9386C8.05763 16.2423 8.08988 16.5452 8.15398 16.842L7.91418 16.8114H3.77898C3.15822 16.6854 2.57909 16.4054 2.09478 15.9972C1.9739 15.9013 1.87642 15.7792 1.80975 15.64C1.74308 15.5009 1.70896 15.3484 1.70998 15.1941V13.0122C1.81142 12.5404 2.0478 12.1084 2.39035 11.7686C2.50813 11.645 2.59973 11.499 2.65962 11.3392C2.71952 11.1794 2.74649 11.0091 2.7389 10.8386L2.64549 8.31651C2.63769 8.13733 2.68768 7.96038 2.78809 7.81177C2.8885 7.66316 3.03402 7.55076 3.20317 7.49114C5.95951 6.5389 12.6159 6.26146 14.8202 6.20848C14.9725 6.20433 15.1213 6.16209 15.253 6.08561C15.3848 6.00914 15.4953 5.90087 15.5744 5.7707L16.411 4.39602C16.4678 4.29889 16.5476 4.21721 16.6434 4.15814C16.7392 4.09907 16.848 4.06442 16.9603 4.05723C17.1923 4.04649 17.4209 4.11645 17.6072 4.2552C17.767 4.37907 17.9627 4.44758 18.1649 4.45039H18.5273C18.6224 4.45039 18.7165 4.4691 18.8043 4.50546C18.8921 4.54182 18.9718 4.59512 19.039 4.66231C19.2607 4.88436 19.3855 5.18508 19.3862 5.49883V7.21091C19.3862 7.22427 19.3888 7.23751 19.3939 7.24986C19.399 7.26221 19.4065 7.27342 19.416 7.28288C19.4254 7.29233 19.4367 7.29982 19.449 7.30494C19.4614 7.31005 19.4746 7.31269 19.488 7.31269L38.001 8.4487C38.238 8.43755 38.4751 8.42639 38.7135 8.41803C50.7677 8.85759 55.9221 11.6292 56.9831 12.488C58.0678 13.3705 57.2306 14.242 57.0277 14.7075C56.7196 15.4144 56.8562 15.7016 56.9887 15.8229C57.0951 15.9155 57.1685 16.0403 57.1978 16.1784Z" stroke="#595959" stroke-width="1.7" stroke-miterlimit="10"/>
<path d="M21.6431 11.0779H26.1871" stroke="#595959" stroke-width="1.7" stroke-miterlimit="10"/>
<path d="M17.7601 4.73821C21.8753 2.18747 33.7071 -0.442478 48.1128 9.4437" stroke="#595959" stroke-width="1.7"/>
<path d="M5.09497 3.19189L6.01166 6.51837" stroke="#595959" stroke-width="1.7"/>
<path d="M1.70996 2.17499L7.9794 3.07574" stroke="#595959" stroke-width="1.7"/>
</svg>
