<svg width="58" height="26" viewBox="0 0 58 26" fill="none" xmlns="http://www.w3.org/2000/svg">
<path d="M53.7974 19.9613H51.674C51.7071 19.7248 51.7239 19.4863 51.7242 19.2474C51.7242 17.9222 51.1978 16.6512 50.2607 15.7142C49.3236 14.7771 48.0527 14.2506 46.7274 14.2506C45.4022 14.2506 44.1312 14.7771 43.1941 15.7142C42.2571 16.6512 41.7306 17.9222 41.7306 19.2474C41.731 19.4863 41.7477 19.7248 41.7808 19.9613H15.9881C16.0207 19.7247 16.037 19.4862 16.0369 19.2474C16.048 18.5843 15.9269 17.9256 15.6808 17.3098C15.4347 16.6939 15.0685 16.1332 14.6034 15.6603C14.1384 15.1875 13.5839 14.8119 12.9722 14.5555C12.3606 14.2992 11.704 14.1672 11.0408 14.1672C10.3775 14.1672 9.72096 14.2992 9.1093 14.5555C8.49763 14.8119 7.94312 15.1875 7.47809 15.6603C7.01306 16.1332 6.64681 16.6939 6.40071 17.3098C6.1546 17.9256 6.03356 18.5843 6.04464 19.2474C6.04455 19.4862 6.06085 19.7247 6.09344 19.9613H3.54205C3.54205 19.9613 2.76687 19.9543 2.68462 19.9334C2.1604 19.8121 0.414856 19.2014 1.19979 16.5999C1.32912 16.1969 1.39681 15.7767 1.40056 15.3534V8.62921C1.40233 7.87876 1.66004 7.15136 2.13112 6.56718L5.4772 2.45847C5.65473 2.24084 5.87841 2.06539 6.13208 1.94482C6.38574 1.82426 6.66304 1.7616 6.9439 1.76137C14.6533 0.811334 22.45 0.808057 30.1601 1.75161C30.1981 1.75606 30.2362 1.75839 30.2745 1.75859C31.4723 1.77367 32.634 2.17132 33.5899 2.89346L40.296 7.99485C40.7681 8.35221 41.3277 8.57612 41.916 8.64315L51.3882 9.74736C52.7584 9.90574 54.0225 10.5623 54.94 11.5922C55.8575 12.622 56.3644 13.9533 56.3641 15.3325V15.603C56.372 15.8457 56.4431 16.0822 56.5705 16.2889C56.7485 16.7185 56.8112 17.1872 56.7523 17.6484C56.6935 18.1097 56.5151 18.5476 56.2348 18.9187C55.9546 19.2898 55.5823 19.5812 55.1548 19.7641C54.7272 19.9469 54.2593 20.0149 53.7974 19.9613Z" stroke="#1C67CE" stroke-width="1.7" stroke-miterlimit="10"/>
<path d="M16.0328 19.2473C16.0329 19.486 16.0166 19.7246 15.984 19.9611C15.816 21.1542 15.2227 22.2466 14.3133 23.0369C13.4038 23.8273 12.2395 24.2626 11.0346 24.2626C9.82965 24.2626 8.66529 23.8273 7.75585 23.0369C6.84641 22.2466 6.25309 21.1542 6.08514 19.9611C6.05255 19.7246 6.03625 19.486 6.03634 19.2473C6.02526 18.5841 6.14631 17.9255 6.39241 17.3096C6.63852 16.6937 7.00476 16.133 7.46979 15.6602C7.93482 15.1873 8.48933 14.8117 9.101 14.5554C9.71267 14.299 10.3692 14.167 11.0325 14.167C11.6957 14.167 12.3523 14.299 12.9639 14.5554C13.5756 14.8117 14.1301 15.1873 14.5951 15.6602C15.0602 16.133 15.4264 16.6937 15.6725 17.3096C15.9186 17.9255 16.0397 18.5841 16.0286 19.2473H16.0328Z" stroke="#1C67CE" stroke-width="1.7" stroke-miterlimit="10"/>
<path d="M51.7236 19.2473C51.7232 19.4861 51.7064 19.7246 51.6734 19.9611C51.5054 21.1543 50.9121 22.2466 50.0027 23.037C49.0932 23.8274 47.9289 24.2626 46.724 24.2626C45.5191 24.2626 44.3547 23.8274 43.4453 23.037C42.5358 22.2466 41.9425 21.1543 41.7746 19.9611C41.7415 19.7246 41.7247 19.4861 41.7244 19.2473C41.7244 17.9221 42.2508 16.6511 43.1879 15.714C44.125 14.7769 45.3959 14.2505 46.7212 14.2505C48.0464 14.2505 49.3174 14.7769 50.2545 15.714C51.1915 16.6511 51.718 17.9221 51.718 19.2473H51.7236Z" stroke="#1C67CE" stroke-width="1.7" stroke-miterlimit="10"/>
<path d="M41.3694 8.53993L27.0091 8.20671C26.709 8.19854 26.4162 8.11234 26.1595 7.95662C25.9028 7.8009 25.6911 7.58101 25.5452 7.31861L22.0764 1.11023" stroke="#1C67CE" stroke-width="1.7" stroke-miterlimit="10"/>
<path d="M18.0405 1C19.2077 2.97018 20.2606 5.00582 21.1942 7.09684C21.2693 7.23659 21.3078 7.3931 21.306 7.55176C21.3042 7.71041 21.2622 7.86602 21.1839 8.00404C21.1057 8.14205 20.9937 8.25797 20.8584 8.34094C20.7232 8.42392 20.5691 8.47124 20.4106 8.47849L5.69066 7.86365C5.40617 7.84713 5.13014 7.76075 4.88697 7.61218C4.6438 7.4636 4.44099 7.2574 4.29646 7.01179L3.20898 5.24534" stroke="#1C67CE" stroke-width="1.7" stroke-miterlimit="10"/>
</svg>
